<mxfile host="app.diagrams.net" modified="2024-06-19T08:19:26.480Z" agent="Mozilla/5.0 (Windows NT 10.0; Win64; x64) AppleWebKit/537.36 (KHTML, like Gecko) Chrome/126.0.0.0 Safari/537.36" etag="rKDhZ--1sfut0QaE3qbJ" version="24.5.5" type="device">
  <diagram name="페이지-1" id="MVMjDb1QdHLIfgGKkcKS">
    <mxGraphModel dx="1114" dy="558" grid="1" gridSize="10" guides="1" tooltips="1" connect="1" arrows="1" fold="1" page="1" pageScale="1" pageWidth="827" pageHeight="1169" math="0" shadow="0">
      <root>
        <mxCell id="0" />
        <mxCell id="1" parent="0" />
        <mxCell id="iY9CjVk_s9HAw8DobRR8-1" value="회원" style="whiteSpace=wrap;html=1;" vertex="1" parent="1">
          <mxGeometry x="381" y="100" width="66" height="60" as="geometry" />
        </mxCell>
        <mxCell id="iY9CjVk_s9HAw8DobRR8-4" value="" style="orthogonalLoop=1;jettySize=auto;html=1;rounded=0;endArrow=ERone;endFill=0;exitX=1;exitY=0.5;exitDx=0;exitDy=0;entryX=0.25;entryY=1;entryDx=0;entryDy=0;" edge="1" parent="1" source="iY9CjVk_s9HAw8DobRR8-5" target="iY9CjVk_s9HAw8DobRR8-1">
          <mxGeometry width="80" relative="1" as="geometry">
            <mxPoint x="291" y="200" as="sourcePoint" />
            <mxPoint x="391" y="210" as="targetPoint" />
            <Array as="points">
              <mxPoint x="398" y="220" />
            </Array>
          </mxGeometry>
        </mxCell>
        <mxCell id="iY9CjVk_s9HAw8DobRR8-5" value="작성" style="rhombus;whiteSpace=wrap;html=1;" vertex="1" parent="1">
          <mxGeometry x="231" y="190" width="57" height="60" as="geometry" />
        </mxCell>
        <mxCell id="iY9CjVk_s9HAw8DobRR8-7" value="게시글" style="whiteSpace=wrap;html=1;" vertex="1" parent="1">
          <mxGeometry x="601" y="330" width="66" height="60" as="geometry" />
        </mxCell>
        <mxCell id="iY9CjVk_s9HAw8DobRR8-8" value="댓글" style="whiteSpace=wrap;html=1;" vertex="1" parent="1">
          <mxGeometry x="165" y="330" width="66" height="60" as="geometry" />
        </mxCell>
        <mxCell id="iY9CjVk_s9HAw8DobRR8-10" value="" style="orthogonalLoop=1;jettySize=auto;html=1;rounded=0;entryX=0;entryY=0.5;entryDx=0;entryDy=0;endArrow=none;endFill=0;startArrow=ERzeroToMany;startFill=0;exitX=0.5;exitY=0;exitDx=0;exitDy=0;" edge="1" parent="1" source="iY9CjVk_s9HAw8DobRR8-8" target="iY9CjVk_s9HAw8DobRR8-5">
          <mxGeometry width="80" relative="1" as="geometry">
            <mxPoint x="201" y="310" as="sourcePoint" />
            <mxPoint x="281" y="230" as="targetPoint" />
            <Array as="points">
              <mxPoint x="198" y="220" />
            </Array>
          </mxGeometry>
        </mxCell>
        <mxCell id="iY9CjVk_s9HAw8DobRR8-11" value="" style="orthogonalLoop=1;jettySize=auto;html=1;rounded=0;endArrow=none;endFill=0;exitX=0.75;exitY=1;exitDx=0;exitDy=0;startArrow=ERone;startFill=0;entryX=0;entryY=0.5;entryDx=0;entryDy=0;" edge="1" parent="1" source="iY9CjVk_s9HAw8DobRR8-1" target="iY9CjVk_s9HAw8DobRR8-12">
          <mxGeometry width="80" relative="1" as="geometry">
            <mxPoint x="604" y="190" as="sourcePoint" />
            <mxPoint x="431" y="260" as="targetPoint" />
            <Array as="points">
              <mxPoint x="431" y="220" />
            </Array>
          </mxGeometry>
        </mxCell>
        <mxCell id="iY9CjVk_s9HAw8DobRR8-12" value="작성" style="rhombus;whiteSpace=wrap;html=1;" vertex="1" parent="1">
          <mxGeometry x="524" y="190" width="60" height="60" as="geometry" />
        </mxCell>
        <mxCell id="iY9CjVk_s9HAw8DobRR8-13" value="" style="orthogonalLoop=1;jettySize=auto;html=1;rounded=0;endArrow=ERzeroToMany;endFill=0;exitX=1;exitY=0.5;exitDx=0;exitDy=0;entryX=0.5;entryY=0;entryDx=0;entryDy=0;" edge="1" parent="1" target="iY9CjVk_s9HAw8DobRR8-7" source="iY9CjVk_s9HAw8DobRR8-12">
          <mxGeometry width="80" relative="1" as="geometry">
            <mxPoint x="631" y="310" as="sourcePoint" />
            <mxPoint x="671" y="270" as="targetPoint" />
            <Array as="points">
              <mxPoint x="634" y="220" />
            </Array>
          </mxGeometry>
        </mxCell>
        <mxCell id="iY9CjVk_s9HAw8DobRR8-14" value="" style="orthogonalLoop=1;jettySize=auto;html=1;rounded=0;endArrow=ERone;endFill=0;exitX=1;exitY=0.5;exitDx=0;exitDy=0;entryX=0;entryY=0.5;entryDx=0;entryDy=0;" edge="1" parent="1" source="iY9CjVk_s9HAw8DobRR8-15" target="iY9CjVk_s9HAw8DobRR8-7">
          <mxGeometry width="80" relative="1" as="geometry">
            <mxPoint x="424" y="320" as="sourcePoint" />
            <mxPoint x="581" y="360" as="targetPoint" />
          </mxGeometry>
        </mxCell>
        <mxCell id="iY9CjVk_s9HAw8DobRR8-15" value="포함" style="rhombus;whiteSpace=wrap;html=1;" vertex="1" parent="1">
          <mxGeometry x="385.5" y="330" width="57" height="60" as="geometry" />
        </mxCell>
        <mxCell id="iY9CjVk_s9HAw8DobRR8-16" value="" style="orthogonalLoop=1;jettySize=auto;html=1;rounded=0;entryX=0;entryY=0.5;entryDx=0;entryDy=0;endArrow=none;endFill=0;exitX=1;exitY=0.5;exitDx=0;exitDy=0;startArrow=ERzeroToMany;startFill=0;" edge="1" parent="1" target="iY9CjVk_s9HAw8DobRR8-15" source="iY9CjVk_s9HAw8DobRR8-8">
          <mxGeometry width="80" relative="1" as="geometry">
            <mxPoint x="251" y="360" as="sourcePoint" />
            <mxPoint x="414" y="350" as="targetPoint" />
          </mxGeometry>
        </mxCell>
        <mxCell id="iY9CjVk_s9HAw8DobRR8-17" value="글번호" style="ellipse;whiteSpace=wrap;html=1;" vertex="1" parent="1">
          <mxGeometry x="71" y="350" width="46" height="50" as="geometry" />
        </mxCell>
        <mxCell id="iY9CjVk_s9HAw8DobRR8-18" value="댓글번호" style="ellipse;whiteSpace=wrap;html=1;" vertex="1" parent="1">
          <mxGeometry x="91" y="270" width="56" height="50" as="geometry" />
        </mxCell>
        <mxCell id="iY9CjVk_s9HAw8DobRR8-19" value="내용" style="ellipse;whiteSpace=wrap;html=1;direction=south;" vertex="1" parent="1">
          <mxGeometry x="105" y="422" width="50" height="46" as="geometry" />
        </mxCell>
        <mxCell id="iY9CjVk_s9HAw8DobRR8-20" value="작성일" style="ellipse;whiteSpace=wrap;html=1;" vertex="1" parent="1">
          <mxGeometry x="175" y="440" width="46" height="50" as="geometry" />
        </mxCell>
        <mxCell id="iY9CjVk_s9HAw8DobRR8-21" value="작성자" style="ellipse;whiteSpace=wrap;html=1;" vertex="1" parent="1">
          <mxGeometry x="251" y="440" width="46" height="50" as="geometry" />
        </mxCell>
        <mxCell id="iY9CjVk_s9HAw8DobRR8-23" value="" style="orthogonalLoop=1;jettySize=auto;html=1;rounded=0;entryX=0;entryY=0;entryDx=0;entryDy=0;endArrow=none;endFill=0;exitX=1;exitY=1;exitDx=0;exitDy=0;" edge="1" parent="1" source="iY9CjVk_s9HAw8DobRR8-18" target="iY9CjVk_s9HAw8DobRR8-8">
          <mxGeometry width="80" relative="1" as="geometry">
            <mxPoint x="141" y="275" as="sourcePoint" />
            <mxPoint x="204" y="205" as="targetPoint" />
          </mxGeometry>
        </mxCell>
        <mxCell id="iY9CjVk_s9HAw8DobRR8-25" value="" style="orthogonalLoop=1;jettySize=auto;html=1;rounded=0;endArrow=none;endFill=0;exitX=1;exitY=0.5;exitDx=0;exitDy=0;entryX=0;entryY=0.5;entryDx=0;entryDy=0;" edge="1" parent="1" source="iY9CjVk_s9HAw8DobRR8-17" target="iY9CjVk_s9HAw8DobRR8-8">
          <mxGeometry width="80" relative="1" as="geometry">
            <mxPoint x="102" y="430" as="sourcePoint" />
            <mxPoint x="151" y="380" as="targetPoint" />
          </mxGeometry>
        </mxCell>
        <mxCell id="iY9CjVk_s9HAw8DobRR8-26" value="" style="orthogonalLoop=1;jettySize=auto;html=1;rounded=0;entryX=0;entryY=1;entryDx=0;entryDy=0;endArrow=none;endFill=0;exitX=0;exitY=0;exitDx=0;exitDy=0;" edge="1" parent="1" source="iY9CjVk_s9HAw8DobRR8-19" target="iY9CjVk_s9HAw8DobRR8-8">
          <mxGeometry width="80" relative="1" as="geometry">
            <mxPoint x="107" y="460" as="sourcePoint" />
            <mxPoint x="170" y="390" as="targetPoint" />
          </mxGeometry>
        </mxCell>
        <mxCell id="iY9CjVk_s9HAw8DobRR8-27" value="" style="orthogonalLoop=1;jettySize=auto;html=1;rounded=0;entryX=0.5;entryY=1;entryDx=0;entryDy=0;endArrow=none;endFill=0;exitX=0.5;exitY=0;exitDx=0;exitDy=0;" edge="1" parent="1" source="iY9CjVk_s9HAw8DobRR8-20" target="iY9CjVk_s9HAw8DobRR8-8">
          <mxGeometry width="80" relative="1" as="geometry">
            <mxPoint x="221" y="430" as="sourcePoint" />
            <mxPoint x="284" y="360" as="targetPoint" />
          </mxGeometry>
        </mxCell>
        <mxCell id="iY9CjVk_s9HAw8DobRR8-28" value="" style="orthogonalLoop=1;jettySize=auto;html=1;rounded=0;entryX=1;entryY=1;entryDx=0;entryDy=0;endArrow=none;endFill=0;exitX=0;exitY=0;exitDx=0;exitDy=0;" edge="1" parent="1" source="iY9CjVk_s9HAw8DobRR8-21" target="iY9CjVk_s9HAw8DobRR8-8">
          <mxGeometry width="80" relative="1" as="geometry">
            <mxPoint x="241" y="440" as="sourcePoint" />
            <mxPoint x="304" y="370" as="targetPoint" />
          </mxGeometry>
        </mxCell>
        <mxCell id="iY9CjVk_s9HAw8DobRR8-29" value="아이디" style="ellipse;whiteSpace=wrap;html=1;" vertex="1" parent="1">
          <mxGeometry x="339.5" y="10" width="46" height="50" as="geometry" />
        </mxCell>
        <mxCell id="iY9CjVk_s9HAw8DobRR8-30" value="가입일" style="ellipse;whiteSpace=wrap;html=1;" vertex="1" parent="1">
          <mxGeometry x="442.5" y="10" width="46" height="50" as="geometry" />
        </mxCell>
        <mxCell id="iY9CjVk_s9HAw8DobRR8-31" value="정보" style="ellipse;whiteSpace=wrap;html=1;" vertex="1" parent="1">
          <mxGeometry x="391" y="10" width="46" height="50" as="geometry" />
        </mxCell>
        <mxCell id="iY9CjVk_s9HAw8DobRR8-32" value="" style="orthogonalLoop=1;jettySize=auto;html=1;rounded=0;endArrow=none;endFill=0;" edge="1" parent="1" source="iY9CjVk_s9HAw8DobRR8-1" target="iY9CjVk_s9HAw8DobRR8-29">
          <mxGeometry width="80" relative="1" as="geometry">
            <mxPoint x="241" y="150" as="sourcePoint" />
            <mxPoint x="321" y="70" as="targetPoint" />
          </mxGeometry>
        </mxCell>
        <mxCell id="iY9CjVk_s9HAw8DobRR8-33" value="" style="orthogonalLoop=1;jettySize=auto;html=1;rounded=0;endArrow=none;endFill=0;" edge="1" parent="1" source="iY9CjVk_s9HAw8DobRR8-1" target="iY9CjVk_s9HAw8DobRR8-31">
          <mxGeometry width="80" relative="1" as="geometry">
            <mxPoint x="391" y="110" as="sourcePoint" />
            <mxPoint x="377" y="73" as="targetPoint" />
          </mxGeometry>
        </mxCell>
        <mxCell id="iY9CjVk_s9HAw8DobRR8-34" value="" style="orthogonalLoop=1;jettySize=auto;html=1;rounded=0;endArrow=none;endFill=0;" edge="1" parent="1" source="iY9CjVk_s9HAw8DobRR8-1" target="iY9CjVk_s9HAw8DobRR8-30">
          <mxGeometry width="80" relative="1" as="geometry">
            <mxPoint x="424" y="110" as="sourcePoint" />
            <mxPoint x="424" y="80" as="targetPoint" />
          </mxGeometry>
        </mxCell>
        <mxCell id="iY9CjVk_s9HAw8DobRR8-35" value="내용" style="ellipse;whiteSpace=wrap;html=1;" vertex="1" parent="1">
          <mxGeometry x="591" y="440" width="46" height="50" as="geometry" />
        </mxCell>
        <mxCell id="iY9CjVk_s9HAw8DobRR8-36" value="제목" style="ellipse;whiteSpace=wrap;html=1;" vertex="1" parent="1">
          <mxGeometry x="651" y="440" width="46" height="50" as="geometry" />
        </mxCell>
        <mxCell id="iY9CjVk_s9HAw8DobRR8-37" value="작성자" style="ellipse;whiteSpace=wrap;html=1;" vertex="1" parent="1">
          <mxGeometry x="531" y="440" width="46" height="50" as="geometry" />
        </mxCell>
        <mxCell id="iY9CjVk_s9HAw8DobRR8-38" value="글번호" style="ellipse;whiteSpace=wrap;html=1;" vertex="1" parent="1">
          <mxGeometry x="711" y="440" width="46" height="50" as="geometry" />
        </mxCell>
        <mxCell id="iY9CjVk_s9HAw8DobRR8-39" value="" style="orthogonalLoop=1;jettySize=auto;html=1;rounded=0;entryX=1;entryY=1;entryDx=0;entryDy=0;endArrow=none;endFill=0;exitX=0;exitY=0;exitDx=0;exitDy=0;" edge="1" parent="1" source="iY9CjVk_s9HAw8DobRR8-38" target="iY9CjVk_s9HAw8DobRR8-7">
          <mxGeometry width="80" relative="1" as="geometry">
            <mxPoint x="770.5" y="430" as="sourcePoint" />
            <mxPoint x="697.5" y="360" as="targetPoint" />
          </mxGeometry>
        </mxCell>
        <mxCell id="iY9CjVk_s9HAw8DobRR8-40" value="" style="orthogonalLoop=1;jettySize=auto;html=1;rounded=0;entryX=0.75;entryY=1;entryDx=0;entryDy=0;endArrow=none;endFill=0;exitX=0.5;exitY=0;exitDx=0;exitDy=0;" edge="1" parent="1" source="iY9CjVk_s9HAw8DobRR8-36" target="iY9CjVk_s9HAw8DobRR8-7">
          <mxGeometry width="80" relative="1" as="geometry">
            <mxPoint x="728" y="457" as="sourcePoint" />
            <mxPoint x="677" y="400" as="targetPoint" />
          </mxGeometry>
        </mxCell>
        <mxCell id="iY9CjVk_s9HAw8DobRR8-41" value="" style="orthogonalLoop=1;jettySize=auto;html=1;rounded=0;entryX=0.25;entryY=1;entryDx=0;entryDy=0;endArrow=none;endFill=0;exitX=0.5;exitY=0;exitDx=0;exitDy=0;" edge="1" parent="1" source="iY9CjVk_s9HAw8DobRR8-35" target="iY9CjVk_s9HAw8DobRR8-7">
          <mxGeometry width="80" relative="1" as="geometry">
            <mxPoint x="677" y="451" as="sourcePoint" />
            <mxPoint x="661" y="400" as="targetPoint" />
          </mxGeometry>
        </mxCell>
        <mxCell id="iY9CjVk_s9HAw8DobRR8-42" value="" style="orthogonalLoop=1;jettySize=auto;html=1;rounded=0;entryX=0;entryY=1;entryDx=0;entryDy=0;endArrow=none;endFill=0;exitX=1;exitY=0;exitDx=0;exitDy=0;" edge="1" parent="1" source="iY9CjVk_s9HAw8DobRR8-37" target="iY9CjVk_s9HAw8DobRR8-7">
          <mxGeometry width="80" relative="1" as="geometry">
            <mxPoint x="624" y="450" as="sourcePoint" />
            <mxPoint x="628" y="400" as="targetPoint" />
          </mxGeometry>
        </mxCell>
        <mxCell id="iY9CjVk_s9HAw8DobRR8-74" value="관리자" style="whiteSpace=wrap;html=1;" vertex="1" parent="1">
          <mxGeometry x="155" y="100" width="66" height="60" as="geometry" />
        </mxCell>
        <mxCell id="iY9CjVk_s9HAw8DobRR8-75" value="승급" style="rhombus;whiteSpace=wrap;html=1;" vertex="1" parent="1">
          <mxGeometry x="271" y="100" width="57" height="60" as="geometry" />
        </mxCell>
        <mxCell id="iY9CjVk_s9HAw8DobRR8-76" value="" style="orthogonalLoop=1;jettySize=auto;html=1;rounded=0;endArrow=ERone;endFill=0;entryX=0;entryY=0.5;entryDx=0;entryDy=0;" edge="1" parent="1" source="iY9CjVk_s9HAw8DobRR8-75" target="iY9CjVk_s9HAw8DobRR8-1">
          <mxGeometry width="80" relative="1" as="geometry">
            <mxPoint x="391" y="110" as="sourcePoint" />
            <mxPoint x="350" y="150" as="targetPoint" />
          </mxGeometry>
        </mxCell>
        <mxCell id="iY9CjVk_s9HAw8DobRR8-77" value="" style="orthogonalLoop=1;jettySize=auto;html=1;rounded=0;endArrow=none;endFill=0;exitX=1;exitY=0.5;exitDx=0;exitDy=0;startArrow=ERzeroToOne;startFill=0;" edge="1" parent="1" source="iY9CjVk_s9HAw8DobRR8-74" target="iY9CjVk_s9HAw8DobRR8-75">
          <mxGeometry width="80" relative="1" as="geometry">
            <mxPoint x="391" y="140" as="sourcePoint" />
            <mxPoint x="260" y="170" as="targetPoint" />
          </mxGeometry>
        </mxCell>
        <mxCell id="iY9CjVk_s9HAw8DobRR8-78" value="강의" style="whiteSpace=wrap;html=1;" vertex="1" parent="1">
          <mxGeometry x="654" y="100" width="66" height="60" as="geometry" />
        </mxCell>
        <mxCell id="iY9CjVk_s9HAw8DobRR8-80" value="" style="orthogonalLoop=1;jettySize=auto;html=1;rounded=0;endArrow=ERzeroToMany;endFill=0;startArrow=none;startFill=0;" edge="1" parent="1" source="iY9CjVk_s9HAw8DobRR8-1" target="iY9CjVk_s9HAw8DobRR8-82">
          <mxGeometry width="80" relative="1" as="geometry">
            <mxPoint x="441" y="170" as="sourcePoint" />
            <mxPoint x="500" y="130" as="targetPoint" />
            <Array as="points" />
          </mxGeometry>
        </mxCell>
        <mxCell id="iY9CjVk_s9HAw8DobRR8-81" value="" style="orthogonalLoop=1;jettySize=auto;html=1;rounded=0;endArrow=none;endFill=0;exitX=1;exitY=0.5;exitDx=0;exitDy=0;startArrow=ERzeroToMany;startFill=0;" edge="1" parent="1" source="iY9CjVk_s9HAw8DobRR8-82" target="iY9CjVk_s9HAw8DobRR8-78">
          <mxGeometry width="80" relative="1" as="geometry">
            <mxPoint x="601" y="130" as="sourcePoint" />
            <mxPoint x="554" y="140" as="targetPoint" />
            <Array as="points" />
          </mxGeometry>
        </mxCell>
        <mxCell id="iY9CjVk_s9HAw8DobRR8-82" value="강의" style="whiteSpace=wrap;html=1;" vertex="1" parent="1">
          <mxGeometry x="521" y="100" width="66" height="60" as="geometry" />
        </mxCell>
        <mxCell id="iY9CjVk_s9HAw8DobRR8-84" value="가입일" style="ellipse;whiteSpace=wrap;html=1;" vertex="1" parent="1">
          <mxGeometry x="485" y="40" width="46" height="50" as="geometry" />
        </mxCell>
        <mxCell id="iY9CjVk_s9HAw8DobRR8-85" value="가입일" style="ellipse;whiteSpace=wrap;html=1;" vertex="1" parent="1">
          <mxGeometry x="577" y="40" width="46" height="50" as="geometry" />
        </mxCell>
        <mxCell id="iY9CjVk_s9HAw8DobRR8-86" value="가입일" style="ellipse;whiteSpace=wrap;html=1;" vertex="1" parent="1">
          <mxGeometry x="531" y="20" width="46" height="50" as="geometry" />
        </mxCell>
        <mxCell id="iY9CjVk_s9HAw8DobRR8-88" value="" style="orthogonalLoop=1;jettySize=auto;html=1;rounded=0;endArrow=none;endFill=0;" edge="1" parent="1" source="iY9CjVk_s9HAw8DobRR8-82" target="iY9CjVk_s9HAw8DobRR8-84">
          <mxGeometry width="80" relative="1" as="geometry">
            <mxPoint x="440" y="110" as="sourcePoint" />
            <mxPoint x="464" y="67" as="targetPoint" />
          </mxGeometry>
        </mxCell>
        <mxCell id="iY9CjVk_s9HAw8DobRR8-89" value="" style="orthogonalLoop=1;jettySize=auto;html=1;rounded=0;endArrow=none;endFill=0;" edge="1" parent="1" source="iY9CjVk_s9HAw8DobRR8-82" target="iY9CjVk_s9HAw8DobRR8-86">
          <mxGeometry width="80" relative="1" as="geometry">
            <mxPoint x="440" y="110" as="sourcePoint" />
            <mxPoint x="464" y="67" as="targetPoint" />
          </mxGeometry>
        </mxCell>
        <mxCell id="iY9CjVk_s9HAw8DobRR8-90" value="" style="orthogonalLoop=1;jettySize=auto;html=1;rounded=0;endArrow=none;endFill=0;" edge="1" parent="1" source="iY9CjVk_s9HAw8DobRR8-82" target="iY9CjVk_s9HAw8DobRR8-85">
          <mxGeometry width="80" relative="1" as="geometry">
            <mxPoint x="564" y="110" as="sourcePoint" />
            <mxPoint x="564" y="80" as="targetPoint" />
          </mxGeometry>
        </mxCell>
      </root>
    </mxGraphModel>
  </diagram>
</mxfile>
